Coordinates
version=1
nRows=24
nColumns=19
inDegrees=yes

Units are S.I. units (second, meters, Newtons, ...)
If the header above contains a line with 'inDegrees', this indicates whether rotational values are in degrees (yes) or radians (no).

endheader
time	pelvis_tilt	pelvis_list	pelvis_rotation	pelvis_tx	pelvis_ty	pelvis_tz	hip_flexion_r	hip_adduction_r	hip_rotation_r	knee_angle_r	knee_angle_r_beta	ankle_angle_r	hip_flexion_l	hip_adduction_l	hip_rotation_l	knee_angle_l	knee_angle_l_beta	ankle_angle_l
     11.83333333	     -2.85739272	     -7.42814272	     -0.03883436	      2.28064869	      0.94923426	      0.97684510	     27.45146279	      9.92743891	     -9.78584449	     14.37534990	      0.25089719	     -4.29559890	    -10.42247657	    -10.45237127	     -7.83777741	     80.03651589	      1.39690072	    -23.45934757
     11.84000000	     -2.07143655	     -7.85644146	     -0.80355622	      2.27962520	      0.94491696	      0.97719387	     26.84891372	     10.49305815	    -10.15457753	     17.51486299	      0.30569203	     -3.23205315	     -9.55828241	    -10.83111335	     -8.02758379	     84.03102651	      1.46661809	    -22.66602274
     11.84666667	     -2.29802801	     -7.77699599	     -1.55502405	      2.27804162	      0.93934897	      0.97737989	     27.54686735	     10.43041515	    -10.28912828	     21.32777588	      0.37223991	     -1.69806154	     -7.25424558	    -10.57140504	     -7.74039062	     88.17182629	      1.53888868	    -21.86669796
     11.85333333	     -2.13269614	     -7.76683789	     -2.35325783	      2.27625446	      0.93407324	      0.97739347	     27.73141925	     10.49661018	    -10.04352922	     25.18225560	      0.43951327	      0.25256799	     -5.33742522	    -10.40319814	     -7.60206593	     92.12541952	      1.60789190	    -21.03389302
     11.86000000	     -1.38012533	     -8.09820774	     -3.06349126	      2.27439107	      0.92942263	      0.97715394	     27.08942984	     10.90738175	     -9.70830724	     28.83732766	      0.50330632	      2.55496328	     -4.04463902	    -10.68587421	     -7.54815193	     95.86427794	      1.67314729	    -20.11848501
     11.86666667	     -2.04167757	     -7.42855121	     -3.91304325	      2.27172930	      0.92353289	      0.97710494	     28.09520061	     10.45263107	     -8.66545661	     32.82952894	      0.57298337	      5.09328038	     -0.77362625	     -9.82713146	     -7.17772290	     99.65485301	      1.73930530	    -19.37316183
     11.87333333	     -2.12737818	     -7.16980196	     -4.64968062	      2.26904730	      0.91856970	      0.97690936	     28.15232997	     10.44493888	     -7.64388367	     36.29985359	      0.63355196	      7.82772021	      1.88388883	     -9.56240178	     -6.91761003	    103.16027596	      1.80048647	    -18.54473282
     11.88000000	     -2.18649452	     -6.81420329	     -5.33309496	      2.26614061	      0.91413818	      0.97674092	     27.94196409	     10.38532849	     -6.47842581	     39.39901742	      0.68764258	     10.67041720	      4.66160982	     -9.27037488	     -6.62880692	    106.39867230	      1.85700715	    -17.73134282
     11.88666667	     -2.27511461	     -6.39792284	     -5.93513276	      2.26305963	      0.91031865	      0.97658453	     27.48105893	     10.26907823	     -5.27520904	     42.02479958	      0.73347112	     13.53867421	      7.62452324	     -9.00393560	     -6.29149928	    109.34398871	      1.90841262	    -16.98165763
     11.89333333	     -2.38708848	     -5.96883083	     -6.41632505	      2.25995571	      0.90718755	      0.97643514	     26.71897098	     10.10241623	     -4.12460515	     44.09305416	      0.76956897	     16.29493784	     10.73307231	     -8.79835466	     -5.86781499	    111.95519571	      1.95398678	    -16.15037340
     11.90000000	     -1.91848356	     -5.77278660	     -6.73642405	      2.25709328	      0.90550525	      0.97632437	     24.87841059	     10.05050472	     -3.09808188	     45.41326172	      0.79261094	     19.04369635	     13.18732128	     -8.91482760	     -5.41024191	    114.10065828	      1.99143217	    -15.26765609
     11.90666667	     -2.46620322	     -4.94770503	     -7.04333773	      2.25397316	      0.90342051	      0.97630185	     24.05637804	      9.38520700	     -2.01872831	     46.50027840	      0.81158296	     21.34143762	     17.03506632	     -8.34404591	     -4.91249397	    115.95322553	      2.02376556	    -14.48784616
     11.91333333	     -2.12456612	     -4.55807481	     -7.24215794	      2.25141667	      0.90323403	      0.97651459	     21.73407884	      9.05011855	     -0.99148209	     46.69370319	      0.81495886	     23.42788795	     19.71302111	     -8.32792685	     -4.47278005	    117.23878896	      2.04620288	    -13.60176037
     11.92000000	     -2.00255102	     -3.94594732	     -7.37465780	      2.24921575	      0.90355867	      0.97690246	     19.39656792	      8.41746811	     -0.05427387	     46.39262622	      0.80970408	     25.19207860	     22.61466117	     -8.06812105	     -4.08170840	    118.06978490	      2.06070649	    -12.60976489
     11.92666667	     -2.16639751	     -3.04098228	     -7.19169799	      2.24732035	      0.90416052	      0.97717838	     17.23056317	      7.33776181	      0.50982157	     45.75309223	      0.79854210	     26.55871083	     25.89244147	     -7.40141853	     -3.59227669	    118.50272927	      2.06826280	    -11.59045961
     11.93333333	     -2.23540860	     -2.26805754	     -7.08870642	      2.24584570	      0.90552566	      0.97792745	     14.65871444	      6.44674319	      1.18734519	     44.54708449	      0.77749330	     27.41464729	     28.86032605	     -6.98909723	     -3.28048734	    118.49607082	      2.06814659	    -10.53710587
     11.94000000	     -2.29714320	     -1.44649192	     -6.83263274	      2.24478123	      0.90748051	      0.97881214	     11.88991153	      5.45704989	      1.66569706	     42.92210662	      0.74913208	     27.67744252	     31.69184679	     -6.49225401	     -2.99719238	    118.08510222	      2.06097383	     -9.50170869
     11.94666667	     -2.30148865	     -0.57532738	     -6.53514304	      2.24434089	      0.91008349	      0.97989330	      8.86247241	      4.39920787	      2.03942167	     40.89312500	      0.71371967	     27.34478569	     34.23669372	     -5.96289421	     -2.87681477	    117.24950129	      2.04638984	     -8.46445223
     11.95333333	     -2.81636169	      0.41132232	     -6.39034334	      2.24420279	      0.91262276	      0.98132090	      6.36692857	      3.37037856	      2.69254214	     38.72201858	      0.67582672	     26.30893153	     37.13957782	     -5.47618608	     -3.03869207	    116.05674515	      2.02557232	     -7.48238998
     11.96000000	     -2.42560411	      1.45954650	     -5.96590355	      2.24494283	      0.91666336	      0.98260142	      2.66415476	      1.99790217	      2.50712734	     36.03607072	      0.62894808	     24.63842540	     38.74495544	     -4.75820208	     -3.29639931	    114.40284836	      1.99670638	     -6.49020635
     11.96666667	     -2.53199943	      2.58083169	     -5.72842836	      2.24595453	      0.92052909	      0.98409678	     -0.42965052	      0.67853780	      2.51696741	     33.34677626	      0.58201104	     22.19930775	     40.67246823	     -4.14428870	     -3.83882818	    112.45520381	      1.96271357	     -5.59965375
     11.97333333	     -2.69733082	      3.74183135	     -5.52931293	      2.24735103	      0.92465006	      0.98563884	     -3.41900369	     -0.69112746	      2.31315666	     30.58533967	      0.53381488	     19.03475914	     42.42347487	     -3.58954596	     -4.58514390	    110.20497086	      1.92343959	     -4.79521069
     11.98000000	     -3.04172403	      4.90659371	     -5.26563301	      2.24909295	      0.92884059	      0.98694557	     -6.11453459	     -2.06382789	      1.73417853	     27.87676304	      0.48654130	     15.18800271	     44.16627832	     -2.98617321	     -5.38262557	    107.68944546	      1.87953539	     -4.09572341
     11.98666667	     -3.26050664	      6.00892531	     -5.15126212	      2.25113350	      0.93340562	      0.98833562	     -8.82350746	     -3.38559149	      1.03757050	     25.21326850	      0.44005455	     10.72112367	     45.49539300	     -2.58512368	     -6.39820006	    104.89537008	      1.83076958	     -3.45101412
